<svg xmlns="http://www.w3.org/2000/svg" width="38.954" height="50.072" viewBox="0 0 38.954 50.072">
  <g id="Group_2513" data-name="Group 2513" transform="translate(-947.5 -5337.445)">
    <path id="blood" d="M29.05,37.853c-4.276,5.8-8.481,10.4-8.659,10.6a1.917,1.917,0,0,1-2.828,0c-.177-.194-4.383-4.8-8.659-10.6C3,29.844,0,23.685,0,19.547v-.524a18.974,18.974,0,0,1,28.256-16.6,1.917,1.917,0,0,1-1.88,3.341A15.14,15.14,0,0,0,3.834,19.023v.524c0,3.2,2.89,8.888,8.137,16,2.693,3.653,5.414,6.881,7.007,8.714,1.588-1.827,4.3-5.042,6.987-8.688,5.259-7.128,8.156-12.821,8.156-16.03v-.524A15.052,15.052,0,0,0,32.411,12a1.917,1.917,0,1,1,3.4-1.771,19.113,19.113,0,0,1,2.143,8.79v.524c0,4.138-3,10.3-8.9,18.306Zm0,0" transform="translate(948 5337.945)" fill="#fff" stroke="#707070" stroke-width="1"/>
    <g id="dental" transform="translate(960.604 5348.15)">
      <g id="Group_2512" data-name="Group 2512" transform="translate(0 0)">
        <g id="Group_2511" data-name="Group 2511" transform="translate(0 0)">
          <path id="Path_16008" data-name="Path 16008" d="M107.125,143.8a4.062,4.062,0,0,0-1.709.52,2.162,2.162,0,0,1-2.577,0,4.06,4.06,0,0,0-1.709-.52c-2.3,0-3.961,2.462-3.961,5.854,0,1.9,1.092,12.795,3.961,12.795.967,0,1.273-1.531,1.737-3.847.214-1.071.783-3.916,1.259-3.918.682,0,1.158,2.706,1.413,4.158.383,2.172.636,3.607,1.586,3.607,2.869,0,3.961-10.9,3.961-12.795C111.086,146.26,109.42,143.8,107.125,143.8Zm.07,17.66a11.276,11.276,0,0,1-.69-2.789c-.43-2.44-.874-4.964-2.38-4.969-1.281.006-1.716,2.184-2.221,4.707a11.878,11.878,0,0,1-.838,3.052c-1.328-.242-2.916-7.965-2.916-11.808,0-2.778,1.281-4.873,2.98-4.873a3.33,3.33,0,0,1,1.288.426,3.065,3.065,0,0,0,3.417,0,3.338,3.338,0,0,1,1.289-.426c1.7,0,2.98,2.095,2.98,4.873C110.1,153.488,108.522,161.19,107.2,161.458Z" transform="translate(-97.169 -143.798)" fill="#fff" stroke="#fff" stroke-width="0.5"/>
        </g>
      </g>
    </g>
  </g>
</svg>
