<svg xmlns="http://www.w3.org/2000/svg" width="53.412" height="53.541" viewBox="0 0 53.412 53.541">
  <g id="anesthesia" transform="translate(0.144 0.564)">
    <path id="Path_15979" data-name="Path 15979" d="M1.228,40.223H7.2a11.457,11.457,0,0,1,.381,1.832,38.739,38.739,0,0,0,1.035,6.1c.408,1.512,1.167,4.327,3.685,4.327.733,0,2.966,0,4.429-10.488.284-2.007,1.088-2.227,1.513-2.284.423.056,1.231.274,1.515,2.282,1.461,10.489,3.695,10.489,4.429,10.489,2.518,0,3.277-2.815,3.683-4.321a39.423,39.423,0,0,0,1.036-6.1,11.454,11.454,0,0,1,.38-1.832h22.55a.872.872,0,1,0,0-1.745h-12.8l1.235-4.624a2.647,2.647,0,0,0,.683.087A2.617,2.617,0,0,0,43.475,32l.27-1.006a2.555,2.555,0,0,0,2.32-1.914L49.943,14.6a2.612,2.612,0,0,0,.471-5.129l-1.686-.451.678-2.53a2.619,2.619,0,0,0,1.355-5.06L45.707.089a2.617,2.617,0,0,0-1.354,5.056l-.678,2.53-1.686-.452A2.61,2.61,0,0,0,39.832,11.9l-3.88,14.474A2.585,2.585,0,0,0,37,29.2l-.262,1A2.618,2.618,0,0,0,38.587,33.4l-1.358,5.074H29.893c.2-.468.425-.943.685-1.431.3-.563.627-1.1.955-1.644a20.7,20.7,0,0,0,1.676-3.176c1.586-4.041,2.007-9.575-1.552-12.987-3.44-3.3-9.525-3.426-13.418-.41-3.895-3.016-9.98-2.892-13.418.409C1.259,22.652,1.68,28.186,3.268,32.228a20.8,20.8,0,0,0,1.678,3.177c.326.539.655,1.08.953,1.641.262.488.484.96.685,1.431H1.228a.872.872,0,1,0,0,1.745ZM44.274,3.05a.872.872,0,0,1,.754-1.309.883.883,0,0,1,.228.03l5.06,1.355a.873.873,0,1,1-.453,1.686l-.843-.226-3.374-.9L44.8,3.456a.866.866,0,0,1-.529-.407Zm3.449,3-.677,2.53L45.36,8.124l.677-2.53ZM44.381,28.633a.873.873,0,0,1-1.069.618L38.252,27.9a.873.873,0,0,1-.617-1.069l.226-.843,1.686.452a.894.894,0,0,0,.227.03A.873.873,0,0,0,40,24.75L38.313,24.3l.451-1.686,1.685.452a.9.9,0,0,0,.227.031.872.872,0,0,0,.225-1.716l-1.685-.451.452-1.686,1.685.451a.843.843,0,0,0,.227.031.872.872,0,0,0,.225-1.715l-1.685-.452.452-1.685,1.685.452a.9.9,0,0,0,.227.031.873.873,0,0,0,.225-1.716l-1.685-.452.452-1.685,3.378.9,3.367.907ZM40.47,9.526a.872.872,0,0,1,.84-.648.9.9,0,0,1,.228.031l8.427,2.258a.873.873,0,1,1-.451,1.686l-8.427-2.258a.872.872,0,0,1-.617-1.068ZM38.421,30.649l.226-.842,3.37.906-.226.843a.872.872,0,0,1-1.068.617l-1.686-.452a.873.873,0,0,1-.617-1.069Zm-33.528.941c-1.378-3.515-1.8-8.275,1.135-11.091s8.476-2.77,11.622.1c.009.008.02.009.03.017s.013.02.024.027c.036.029,3.609,2.834,4.5,5.862a.874.874,0,0,0,1.677-.492c-.762-2.6-3.021-4.91-4.264-6.033,3.217-2.238,8.128-2.082,10.836.517,2.939,2.815,2.513,7.575,1.134,11.089a19.266,19.266,0,0,1-1.545,2.91c-.343.567-.688,1.134-1,1.727a15.627,15.627,0,0,0-1.872,5.626,37.951,37.951,0,0,1-.985,5.839c-.4,1.469-.909,3.037-2,3.037-.482-.057-1.775-2.327-2.7-8.986-.328-2.318-1.386-3.591-3.141-3.786a.737.737,0,0,0-.1.009.8.8,0,0,0-.1-.009c-1.756.2-2.813,1.469-3.141,3.788-.928,6.654-2.222,8.927-2.7,8.986-1.091,0-1.6-1.57-2-3.043a37.051,37.051,0,0,1-.984-5.831,15.659,15.659,0,0,0-1.871-5.628c-.314-.59-.658-1.158-1-1.725a19.363,19.363,0,0,1-1.541-2.912Zm0,0" transform="translate(0 0)" fill="#18c2d9" stroke="#18c2d9" stroke-width="1"/>
    <path id="Path_15980" data-name="Path 15980" d="M53.2,198.021a.873.873,0,0,0-.839-1.529,5.98,5.98,0,0,0-2.839,6.472.872.872,0,0,0,.857.692.925.925,0,0,0,.182-.018.873.873,0,0,0,.674-1.035,4.242,4.242,0,0,1,1.966-4.581Zm0,0" transform="translate(-43.842 -175.647)" fill="#18c2d9" stroke="#18c2d9" stroke-width="1"/>
  </g>
</svg>
