<svg xmlns="http://www.w3.org/2000/svg" width="57.669" height="43.99" viewBox="0 0 57.669 43.99">
  <g id="dentist" transform="translate(0.26 0.231)">
    <g id="Group_2320" data-name="Group 2320" transform="translate(0 0)">
      <g id="Group_2319" data-name="Group 2319">
        <g id="Group_2318" data-name="Group 2318">
          <path id="Path_15802" data-name="Path 15802" d="M1.114,173a1.116,1.116,0,1,0-.558-2.082A1.116,1.116,0,0,0,1.114,173Z" transform="translate(0.001 -158.534)" fill="#18c2d9" stroke="#18c2d9" stroke-width="0.5"/>
          <path id="Path_15803" data-name="Path 15803" d="M52.752,75.6a13.389,13.389,0,0,0-.649-5.369,13.081,13.081,0,0,0-8.168-8.5c-5.205-1.669-9.657.849-12.553,2.888a2.682,2.682,0,0,1-3.081,0c-2.9-2.039-7.348-4.557-12.553-2.888A12.756,12.756,0,0,0,8.035,69.06a1.116,1.116,0,0,0,2.048.889,10.559,10.559,0,0,1,6.349-6.095c4.172-1.338,7.927.737,10.434,2.482a7.059,7.059,0,0,0,9.358,2.88,1.116,1.116,0,0,0-1-1.994,4.805,4.805,0,0,1-3.692.272,4.909,4.909,0,0,1-.652-.269,4.886,4.886,0,0,0,1.793-.783C35.175,64.677,39,62.49,43.254,63.854a10.876,10.876,0,0,1,6.738,7.1,11.118,11.118,0,0,1,.543,4.331q-.439-.027-.884-.027A14.523,14.523,0,0,0,39.355,99.9q-.318.673-.627,1.331a2.12,2.12,0,0,1-3.992-.463L32.109,88.38c0-.019-.009-.039-.014-.058a2.332,2.332,0,0,0-4.5,0c-.005.019-.01.039-.014.058L24.95,100.767a2.12,2.12,0,0,1-3.992.463c-4.163-8.858-6.788-14.1-7.8-15.594a25.374,25.374,0,0,1-3.216-6.387,1.116,1.116,0,0,0-2.124.689,27.6,27.6,0,0,0,3.494,6.954c.921,1.353,3.63,6.783,7.628,15.288a4.285,4.285,0,0,0,3.914,2.5,4.566,4.566,0,0,0,.525-.03,4.3,4.3,0,0,0,3.758-3.421l2.62-12.35c.01-.03.027-.052.089-.052s.079.022.089.052l2.62,12.35a4.353,4.353,0,0,0,8.2.949l.352-.747a14.256,14.256,0,0,0,8.55,2.84,14.519,14.519,0,0,0,3.1-28.677Zm-3.1,26.444A12.276,12.276,0,1,1,61.82,89.764,12.236,12.236,0,0,1,49.652,102.04Z" transform="translate(-6.894 -61.184)" fill="#18c2d9" stroke="#18c2d9" stroke-width="0.5"/>
          <path id="Path_15804" data-name="Path 15804" d="M326.219,250.8h-1.528v-1.551a2.478,2.478,0,0,0-2.47-2.481h-2.674a2.478,2.478,0,0,0-2.47,2.481V250.8h-1.528a2.478,2.478,0,0,0-2.47,2.481v2.7a2.478,2.478,0,0,0,2.47,2.481h1.528v1.551a2.478,2.478,0,0,0,2.47,2.481h2.674a2.478,2.478,0,0,0,2.47-2.481v-1.551h1.528a2.478,2.478,0,0,0,2.47-2.481v-2.7A2.478,2.478,0,0,0,326.219,250.8Zm.237,5.178a.243.243,0,0,1-.237.248h-2.645a1.116,1.116,0,0,0-1.116,1.116v2.668a.243.243,0,0,1-.237.248h-2.674a.243.243,0,0,1-.237-.248v-2.668a1.116,1.116,0,0,0-1.116-1.116h-2.645a.243.243,0,0,1-.237-.248v-2.7a.243.243,0,0,1,.237-.248h2.645a1.116,1.116,0,0,0,1.116-1.116v-2.668a.243.243,0,0,1,.237-.248h2.674a.243.243,0,0,1,.237.248v2.668a1.116,1.116,0,0,0,1.116,1.116h2.645a.243.243,0,0,1,.237.248Z" transform="translate(-278.126 -226.052)" fill="#18c2d9" stroke="#18c2d9" stroke-width="0.5"/>
        </g>
      </g>
    </g>
  </g>
</svg>
