<svg xmlns="http://www.w3.org/2000/svg" width="58.294" height="50.272" viewBox="0 0 58.294 50.272">
  <g id="dentist_2_" data-name="dentist (2)" transform="translate(0.557 0.5)">
    <g id="Group_2376" data-name="Group 2376" transform="translate(0 0)">
      <g id="Group_2375" data-name="Group 2375">
        <path id="Path_15843" data-name="Path 15843" d="M29.594,79.139a12.97,12.97,0,0,0-6.81,1.917,2.791,2.791,0,0,1-2.942,0,13.112,13.112,0,0,0-12.19-.77l-.31-.566a1.118,1.118,0,0,0-1.961,0L3.693,82.807.607,84.495a1.118,1.118,0,0,0,0,1.961l.575.315a12.835,12.835,0,0,0,.206,11.186q.021.042.045.082l11.526,18.946a3.151,3.151,0,0,0,5.827-.592l2.209-6.621a1.118,1.118,0,0,0,.038-.148.285.285,0,0,1,.56,0,1.114,1.114,0,0,0,.038.148l2.209,6.62a3.129,3.129,0,0,0,3.023,2.291,3.265,3.265,0,0,0,.387-.023,3.181,3.181,0,0,0,2.439-1.72l11.5-18.9c.016-.027.031-.054.045-.082A13.011,13.011,0,0,0,29.594,79.139ZM5.053,84.611a1.117,1.117,0,0,0,.444-.444l.864-1.581.864,1.581a1.117,1.117,0,0,0,.444.444l1.58.864-1.58.864a1.117,1.117,0,0,0-.444.444l-.864,1.581L5.5,86.784a1.117,1.117,0,0,0-.444-.444l-1.58-.864Zm34.2,12.306-11.5,18.9c-.016.027-.031.054-.045.082a.969.969,0,0,1-.727.544.914.914,0,0,1-1-.668q-.008-.031-.018-.06l-2.2-6.584a2.52,2.52,0,0,0-4.92,0l-2.2,6.584c-.007.02-.013.04-.018.06a.915.915,0,0,1-1.7.168q-.021-.042-.045-.082L3.368,96.918a10.625,10.625,0,0,1-.218-9.071l.543.3,1.688,3.086a1.118,1.118,0,0,0,1.961,0l1.688-3.086,3.086-1.688a1.118,1.118,0,0,0,0-1.961L9.031,82.807l-.3-.553a10.881,10.881,0,0,1,9.941.705,5.015,5.015,0,0,0,5.288,0,10.78,10.78,0,0,1,15.3,13.958Z" transform="translate(0 -74.275)" fill="#18c2d9" stroke="#18c2d9" stroke-width="1"/>
        <path id="Path_15844" data-name="Path 15844" d="M135.36,147.163a8.183,8.183,0,0,1-11.56,0,1.118,1.118,0,0,0-1.581,1.581,10.422,10.422,0,0,0,14.721,0,1.118,1.118,0,0,0-1.581-1.581Z" transform="translate(-108.267 -134.405)" fill="#18c2d9" stroke="#18c2d9" stroke-width="1"/>
        <path id="Path_15845" data-name="Path 15845" d="M392.277,56.253h-3.405v-6a7.358,7.358,0,1,0-2.236,0v6h-3.405a1.118,1.118,0,1,0,0,2.236h.285V83.781a1.118,1.118,0,0,0,1.118,1.118h6.24a1.118,1.118,0,0,0,1.118-1.118V79.008a1.118,1.118,0,1,0-2.236,0v3.655h-4V64.383h4V68.9a1.118,1.118,0,0,0,2.236,0V58.488h.285a1.118,1.118,0,0,0,0-2.236Zm-9.645-13.268a5.122,5.122,0,1,1,5.122,5.122A5.128,5.128,0,0,1,382.632,42.984Zm7.125,19.163h-4V58.488h4Z" transform="translate(-337.875 -35.626)" fill="#18c2d9" stroke="#18c2d9" stroke-width="1"/>
        <path id="Path_15846" data-name="Path 15846" d="M465.882,368.914a1.118,1.118,0,1,0,.411,1.357A1.129,1.129,0,0,0,465.882,368.914Z" transform="translate(-412.262 -331.495)" fill="#18c2d9" stroke="#18c2d9" stroke-width="1"/>
      </g>
    </g>
  </g>
</svg>
