<svg xmlns="http://www.w3.org/2000/svg" width="51.52" height="66.612" viewBox="0 0 51.52 66.612">
  <g id="Group_2513" data-name="Group 2513" transform="translate(-948 -5337.945)">
    <path id="blood" d="M39.433,51.382C33.629,59.25,27.92,65.5,27.68,65.767a2.6,2.6,0,0,1-3.839,0c-.24-.263-5.949-6.518-11.753-14.385C4.067,40.511,0,32.151,0,26.533v-.712A25.756,25.756,0,0,1,38.356,3.292,2.6,2.6,0,0,1,35.8,7.827,20.552,20.552,0,0,0,5.2,25.822v.711c0,4.349,3.922,12.064,11.045,21.724C19.9,53.216,23.6,57.6,25.761,60.086c2.156-2.481,5.833-6.844,9.485-11.794,7.139-9.676,11.071-17.4,11.071-21.759v-.712A20.432,20.432,0,0,0,44,16.293a2.6,2.6,0,1,1,4.616-2.4,25.945,25.945,0,0,1,2.91,11.932v.711c0,5.617-4.067,13.977-12.087,24.849Zm0,0" transform="translate(948 5337.945)" fill="#3b4550"/>
    <g id="dental" transform="translate(867.939 5208)">
      <g id="Group_2512" data-name="Group 2512" transform="translate(97.169 143.798)">
        <g id="Group_2511" data-name="Group 2511" transform="translate(0 0)">
          <path id="Path_16008" data-name="Path 16008" d="M110.683,143.8a5.513,5.513,0,0,0-2.32.707,2.934,2.934,0,0,1-3.5,0,5.511,5.511,0,0,0-2.319-.707c-3.116,0-5.377,3.342-5.377,7.947,0,2.577,1.483,17.368,5.377,17.368,1.313,0,1.728-2.078,2.358-5.222.291-1.454,1.063-5.316,1.708-5.318.925,0,1.571,3.673,1.919,5.644.519,2.949.863,4.9,2.153,4.9,3.895,0,5.377-14.792,5.377-17.368C116.061,147.14,113.8,143.8,110.683,143.8Zm.1,23.972a15.307,15.307,0,0,1-.936-3.786c-.584-3.312-1.186-6.738-3.231-6.745-1.738.008-2.33,2.965-3.015,6.389-.3,1.483-.739,3.7-1.138,4.143-1.8-.329-3.958-10.811-3.958-16.028,0-3.771,1.739-6.614,4.045-6.614a4.52,4.52,0,0,1,1.749.578,4.16,4.16,0,0,0,4.639,0,4.532,4.532,0,0,1,1.749-.578c2.306,0,4.045,2.844,4.045,6.614C114.728,156.952,112.58,167.407,110.779,167.77Z" transform="translate(-97.169 -143.798)" fill="#3b4550" stroke="#3b4550" stroke-width="2"/>
        </g>
      </g>
    </g>
  </g>
</svg>
