<svg xmlns="http://www.w3.org/2000/svg" width="64.389" height="64.388" viewBox="0 0 64.389 64.388">
  <g id="Group_2514" data-name="Group 2514" transform="translate(-1345 -5339.208)">
    <path id="chat" d="M32.067,42ZM54.877,8.615A33.432,33.432,0,0,0,32.193,0,33.433,33.433,0,0,0,9.509,8.615,28.368,28.368,0,0,0,0,29.678,27.813,27.813,0,0,0,5.893,46.8L.182,60.93a2.515,2.515,0,0,0,3.347,3.244l16.179-7.132a34.728,34.728,0,0,0,28-1.352A2.515,2.515,0,0,0,45.434,51.2,29.673,29.673,0,0,1,20.656,52a2.513,2.513,0,0,0-2,.012L7.167,57.073l3.944-9.758a2.515,2.515,0,0,0-.418-2.574A22.994,22.994,0,0,1,5.029,29.678C5.029,16.087,17.215,5.03,32.193,5.03S59.357,16.087,59.357,29.678a22.925,22.925,0,0,1-4.2,13.169,2.515,2.515,0,0,0,4.125,2.88,27.929,27.929,0,0,0,5.106-16.049,28.368,28.368,0,0,0-9.51-21.063Zm0,0" transform="translate(1345.001 5339.209)" fill="#3b4550"/>
    <g id="dentist" transform="translate(1360 5357.73)">
      <g id="Group_2320" data-name="Group 2320" transform="translate(0 0)">
        <g id="Group_2319" data-name="Group 2319">
          <g id="Group_2318" data-name="Group 2318">
            <path id="Path_15802" data-name="Path 15802" d="M.677,172.123a.678.678,0,1,0-.339-1.266.678.678,0,0,0,.339,1.266Z" transform="translate(0.001 -163.331)" fill="#3b4550" stroke="#3b4550" stroke-width="0.5"/>
            <path id="Path_15803" data-name="Path 15803" d="M35.11,69.944a8.139,8.139,0,0,0-.394-3.264,7.952,7.952,0,0,0-4.965-5.166c-3.164-1.015-5.87.516-7.631,1.755a1.63,1.63,0,0,1-1.873,0c-1.76-1.24-4.467-2.77-7.631-1.755a7.754,7.754,0,0,0-4.69,4.457.679.679,0,0,0,1.245.541,6.418,6.418,0,0,1,3.859-3.7c2.536-.813,4.819.448,6.343,1.508a4.291,4.291,0,0,0,5.689,1.751.679.679,0,1,0-.61-1.212,2.921,2.921,0,0,1-2.244.166,2.983,2.983,0,0,1-.4-.163,2.97,2.97,0,0,0,1.09-.476c1.523-1.073,3.847-2.4,6.435-1.573a6.612,6.612,0,0,1,4.1,4.315,6.758,6.758,0,0,1,.33,2.633q-.267-.016-.537-.016a8.829,8.829,0,0,0-6.259,14.98l-.381.809a1.289,1.289,0,0,1-2.427-.281l-1.6-7.53c0-.012-.005-.024-.008-.035a1.417,1.417,0,0,0-2.738,0c0,.012-.006.023-.008.035l-1.6,7.53a1.289,1.289,0,0,1-2.427.281c-2.531-5.385-4.127-8.574-4.743-9.479a15.424,15.424,0,0,1-1.955-3.882.679.679,0,0,0-1.291.419,16.778,16.778,0,0,0,2.124,4.227c.56.823,2.207,4.123,4.637,9.293a2.6,2.6,0,0,0,2.379,1.521,2.773,2.773,0,0,0,.319-.019,2.611,2.611,0,0,0,2.285-2.08L21.13,78.02c.006-.018.017-.032.054-.032s.048.013.054.032l1.592,7.507a2.646,2.646,0,0,0,4.983.577l.214-.454a8.666,8.666,0,0,0,5.2,1.727A8.826,8.826,0,0,0,35.11,69.944ZM33.225,86.019a7.462,7.462,0,1,1,7.4-7.462A7.438,7.438,0,0,1,33.225,86.019Z" transform="translate(-7.234 -61.184)" fill="#3b4550" stroke="#3b4550" stroke-width="0.5"/>
            <path id="Path_15804" data-name="Path 15804" d="M321.067,249.222h-.929v-.943a1.506,1.506,0,0,0-1.5-1.508h-1.626a1.506,1.506,0,0,0-1.5,1.508v.943h-.929a1.506,1.506,0,0,0-1.5,1.508v1.64a1.506,1.506,0,0,0,1.5,1.508h.929v.943a1.506,1.506,0,0,0,1.5,1.508h1.626a1.506,1.506,0,0,0,1.5-1.508v-.943h.929a1.506,1.506,0,0,0,1.5-1.508v-1.64A1.506,1.506,0,0,0,321.067,249.222Zm.144,3.148a.148.148,0,0,1-.144.151h-1.608a.679.679,0,0,0-.679.679v1.622a.148.148,0,0,1-.144.151h-1.626a.148.148,0,0,1-.144-.151V253.2a.679.679,0,0,0-.679-.679H314.58a.148.148,0,0,1-.144-.151v-1.64a.148.148,0,0,1,.144-.151h1.608a.679.679,0,0,0,.679-.679v-1.622a.148.148,0,0,1,.144-.151h1.626a.148.148,0,0,1,.144.151V249.9a.679.679,0,0,0,.679.679h1.608a.148.148,0,0,1,.144.151Z" transform="translate(-291.832 -234.176)" fill="#3b4550" stroke="#3b4550" stroke-width="0.5"/>
          </g>
        </g>
      </g>
    </g>
  </g>
</svg>
