<svg id="instagram_1_" data-name="instagram (1)" xmlns="http://www.w3.org/2000/svg" width="29.009" height="29.008" viewBox="0 0 29.009 29.008">
  <path id="Path_15995" data-name="Path 15995" d="M212.552,209.776A2.776,2.776,0,1,1,209.776,207,2.776,2.776,0,0,1,212.552,209.776Zm0,0" transform="translate(-195.272 -195.272)" fill="#1c92d1"/>
  <path id="Path_15996" data-name="Path 15996" d="M148.805,137.4a2.758,2.758,0,0,0-1.581-1.581,4.608,4.608,0,0,0-1.546-.287c-.878-.04-1.142-.049-3.366-.049s-2.487.008-3.366.048a4.611,4.611,0,0,0-1.546.287,2.759,2.759,0,0,0-1.581,1.581,4.609,4.609,0,0,0-.287,1.547c-.04.878-.049,1.142-.049,3.366s.009,2.487.049,3.366a4.607,4.607,0,0,0,.287,1.546,2.758,2.758,0,0,0,1.581,1.581,4.6,4.6,0,0,0,1.547.287c.878.04,1.141.048,3.365.048s2.488-.008,3.366-.048a4.6,4.6,0,0,0,1.547-.287,2.758,2.758,0,0,0,1.581-1.581,4.612,4.612,0,0,0,.287-1.546c.04-.878.048-1.142.048-3.366s-.008-2.487-.048-3.366A4.6,4.6,0,0,0,148.805,137.4Zm-6.493,9.189a4.277,4.277,0,1,1,4.277-4.277A4.277,4.277,0,0,1,142.313,146.593Zm4.446-7.723a1,1,0,1,1,1-1A1,1,0,0,1,146.759,138.87Zm0,0" transform="translate(-127.809 -127.812)" fill="#1c92d1"/>
  <path id="Path_15997" data-name="Path 15997" d="M14.5,0a14.5,14.5,0,1,0,14.5,14.5A14.506,14.506,0,0,0,14.5,0Zm8.278,17.938A6.111,6.111,0,0,1,22.4,19.96,4.259,4.259,0,0,1,19.96,22.4a6.115,6.115,0,0,1-2.022.387c-.888.041-1.172.05-3.434.05s-2.546-.01-3.434-.05A6.115,6.115,0,0,1,9.049,22.4,4.259,4.259,0,0,1,6.613,19.96a6.109,6.109,0,0,1-.387-2.022c-.041-.888-.05-1.172-.05-3.434s.01-2.546.05-3.434a6.111,6.111,0,0,1,.387-2.022A4.261,4.261,0,0,1,9.049,6.613a6.116,6.116,0,0,1,2.022-.387c.888-.041,1.172-.05,3.434-.05s2.546.01,3.434.05a6.117,6.117,0,0,1,2.022.387A4.26,4.26,0,0,1,22.4,9.049a6.11,6.11,0,0,1,.387,2.022c.041.888.05,1.172.05,3.434S22.823,17.05,22.783,17.938Zm0,0" fill="#1c92d1"/>
</svg>
