<svg id="linkedin" xmlns="http://www.w3.org/2000/svg" width="29.009" height="29.008" viewBox="0 0 29.009 29.008">
  <path id="Path_15990" data-name="Path 15990" d="M14.5,0a14.5,14.5,0,1,0,14.5,14.5A14.5,14.5,0,0,0,14.5,0ZM9.07,24.324H4.992V11.205H9.07ZM7.032,9.412A2.364,2.364,0,1,1,9.395,7.047,2.365,2.365,0,0,1,7.032,9.412Zm17.31,14.913H20.267v-6.38c0-1.521-.028-3.478-2.119-3.478-2.121,0-2.447,1.657-2.447,3.368v6.49H11.627V11.205h3.911V13h.055a4.284,4.284,0,0,1,3.858-2.119c4.129,0,4.891,2.717,4.891,6.25v7.2Z" fill="#1c92d1"/>
</svg>
