<svg xmlns="http://www.w3.org/2000/svg" width="47.955" height="29.139" viewBox="0 0 47.955 29.139">
  <g id="Group_2349" data-name="Group 2349" transform="translate(0 0)">
    <path id="Path_15827" data-name="Path 15827" d="M47.922,102.9a2.459,2.459,0,0,0-2.456-2.453h0L2.453,100.5A2.456,2.456,0,0,0,0,102.964l.033,24.167a2.456,2.456,0,0,0,2.456,2.453h0l43.009-.059a2.459,2.459,0,0,0,2.453-2.46Zm-5.155.007L23.979,115.966,5.155,102.957ZM31.924,118.43l11.143,8.642-38.211.052,11.211-8.694a1.228,1.228,0,0,0-1.505-1.941L2.488,125.853l-.03-21.774L23.283,118.47a1.228,1.228,0,0,0,1.4,0L45.467,104.02l.031,21.829-12.069-9.36a1.228,1.228,0,0,0-1.505,1.941Z" transform="translate(0 -100.445)" fill="#fff"/>
  </g>
</svg>
