<svg id="mail" xmlns="http://www.w3.org/2000/svg" width="91.542" height="55.625" viewBox="0 0 91.542 55.625">
  <g id="Group_2349" data-name="Group 2349" transform="translate(0 0)">
    <path id="Path_15827" data-name="Path 15827" d="M91.479,105.127a4.7,4.7,0,0,0-4.689-4.682h-.006l-82.1.113A4.689,4.689,0,0,0,0,105.253l.063,46.134a4.689,4.689,0,0,0,4.689,4.683h.006l82.1-.113a4.7,4.7,0,0,0,4.683-4.7Zm-9.84.014L45.775,130.073,9.841,105.24Zm-20.7,29.637,21.271,16.5-72.943.1,21.4-16.6a2.345,2.345,0,0,0-2.874-3.706L4.749,148.946l-.057-41.565,39.754,27.473a2.345,2.345,0,0,0,2.671,0l39.677-27.581.06,41.671L63.815,131.073a2.344,2.344,0,0,0-2.873,3.705Z" transform="translate(0 -100.445)" fill="#3b4550"/>
  </g>
</svg>
