<svg xmlns="http://www.w3.org/2000/svg" width="76" height="76" viewBox="0 0 76 76">
  <g id="Group_2468" data-name="Group 2468" transform="translate(2851 376)">
    <circle id="Ellipse_5" data-name="Ellipse 5" cx="38" cy="38" r="38" transform="translate(-2851 -376)" fill="#ffca04"/>
    <g id="Group_2423" data-name="Group 2423" transform="translate(-2832 -357)">
      <g id="Group_2422" data-name="Group 2422">
        <path id="Path_15887" data-name="Path 15887" d="M249.458,24.007h.073A13.238,13.238,0,0,1,262.8,37.337a1.458,1.458,0,0,0,1.451,1.465h.007a1.458,1.458,0,0,0,1.458-1.451,16.154,16.154,0,0,0-16.18-16.261h-.08a1.458,1.458,0,0,0,.007,2.917Z" transform="translate(-229.916 -19.552)" fill="#fff"/>
        <path id="Path_15888" data-name="Path 15888" d="M37.33,30.083a5.522,5.522,0,0,0-1.694-3.795,13.564,13.564,0,0,0-5.37-3.568,6.01,6.01,0,0,0-6.172,1.751l-.008.008-1.974,1.959a29.362,29.362,0,0,1-6.215-4.81l-.192-.192A29.547,29.547,0,0,1,10.9,15.22l1.957-1.972.008-.008a6.01,6.01,0,0,0,1.751-6.172A13.563,13.563,0,0,0,11.046,1.7a5.549,5.549,0,0,0-7.7-.278L3.3,1.458q-.029.026-.057.054A11.832,11.832,0,0,0,0,10.179c.03,6,3.325,12.851,8.814,18.341l.014.014a35.588,35.588,0,0,0,3.483,3.031,1.458,1.458,0,1,0,1.775-2.315,32.61,32.61,0,0,1-3.209-2.792l-.014-.013c-4.95-4.956-7.92-11.04-7.946-16.279A9.009,9.009,0,0,1,5.282,3.6l.011-.01a2.623,2.623,0,0,1,3.654.132c3.776,3.915,3.5,5.764,1.834,7.475l-2.7,2.724a1.458,1.458,0,0,0-.3,1.621A29.466,29.466,0,0,0,13.644,23.5l.192.192a29.466,29.466,0,0,0,7.957,5.863,1.458,1.458,0,0,0,1.621-.3l2.723-2.7c1.711-1.669,3.56-1.942,7.475,1.833a2.623,2.623,0,0,1,.132,3.653l-.01.011a8.983,8.983,0,0,1-6.5,2.365H27.17a18.91,18.91,0,0,1-7.2-1.7,1.458,1.458,0,1,0-1.155,2.678,21.514,21.514,0,0,0,8.337,1.942h.082a11.806,11.806,0,0,0,8.585-3.246c.019-.019.036-.037.054-.057l.038-.042A5.523,5.523,0,0,0,37.33,30.083Z" transform="translate(0 -0.001)" fill="#fff"/>
        <path id="Path_15889" data-name="Path 15889" d="M297.817,114.168a8.015,8.015,0,0,0-3.787-2.179,1.458,1.458,0,0,0-.777,2.811,5.1,5.1,0,0,1,2.5,1.43,5.212,5.212,0,0,1,1.416,2.456l.021.071a1.458,1.458,0,1,0,2.8-.828l-.02-.067A8.026,8.026,0,0,0,297.817,114.168Z" transform="translate(-270.878 -103.774)" fill="#fff"/>
      </g>
    </g>
  </g>
</svg>
