<svg id="Group_2485" data-name="Group 2485" xmlns="http://www.w3.org/2000/svg" width="41.437" height="55.25" viewBox="0 0 41.437 55.25">
  <g id="pin" transform="translate(0 0)">
    <g id="Group_2484" data-name="Group 2484" transform="translate(0 0)">
      <path id="Path_16003" data-name="Path 16003" d="M84.719,0A20.742,20.742,0,0,0,64,20.719C64,36,83.116,54.171,83.93,54.937a1.152,1.152,0,0,0,1.578,0c.814-.767,19.929-18.934,19.929-34.219A20.742,20.742,0,0,0,84.719,0Z" transform="translate(-64)" fill="#eb1852"/>
    </g>
  </g>
  <g id="dentist" transform="translate(7.621 11.332)">
    <g id="Group_2320" data-name="Group 2320" transform="translate(0 0)">
      <g id="Group_2319" data-name="Group 2319">
        <g id="Group_2318" data-name="Group 2318">
          <path id="Path_15802" data-name="Path 15802" d="M.53,171.83a.532.532,0,1,0-.266-.992.532.532,0,0,0,.266.992Z" transform="translate(0.001 -164.941)" fill="#fff" stroke="#fff" stroke-width="0.5"/>
          <path id="Path_15803" data-name="Path 15803" d="M29.191,68.048a6.378,6.378,0,0,0-.309-2.557,6.231,6.231,0,0,0-3.89-4.048c-2.479-.8-4.6.4-5.979,1.376a1.277,1.277,0,0,1-1.467,0c-1.379-.971-3.5-2.171-5.979-1.376a6.076,6.076,0,0,0-3.675,3.492.532.532,0,0,0,.976.424,5.029,5.029,0,0,1,3.024-2.9c1.987-.637,3.776.351,4.97,1.182a3.362,3.362,0,0,0,4.457,1.372.532.532,0,0,0-.478-.95,2.289,2.289,0,0,1-1.759.13,2.338,2.338,0,0,1-.311-.128,2.327,2.327,0,0,0,.854-.373c1.194-.84,3.015-1.882,5.042-1.232a5.181,5.181,0,0,1,3.209,3.381,5.3,5.3,0,0,1,.259,2.063q-.209-.013-.421-.013a6.918,6.918,0,0,0-4.9,11.738l-.3.634a1.01,1.01,0,0,1-1.9-.22l-1.252-5.9c0-.009,0-.019-.007-.028a1.111,1.111,0,0,0-2.145,0c0,.009,0,.018-.007.028l-1.252,5.9a1.01,1.01,0,0,1-1.9.22c-1.983-4.219-3.233-6.718-3.716-7.428A12.086,12.086,0,0,1,8.8,69.788a.532.532,0,0,0-1.012.328,13.147,13.147,0,0,0,1.664,3.312c.439.645,1.729,3.231,3.633,7.282A2.041,2.041,0,0,0,14.948,81.9a2.173,2.173,0,0,0,.25-.015,2.046,2.046,0,0,0,1.79-1.63l1.248-5.883c0-.014.013-.025.043-.025s.038.01.043.025l1.248,5.883a2.073,2.073,0,0,0,3.9.452l.168-.356a6.791,6.791,0,0,0,4.073,1.353,6.916,6.916,0,0,0,1.477-13.659Zm-1.477,12.6a5.847,5.847,0,1,1,5.8-5.847A5.828,5.828,0,0,1,27.714,80.644Z" transform="translate(-7.348 -61.184)" fill="#fff" stroke="#fff" stroke-width="0.5"/>
          <path id="Path_15804" data-name="Path 15804" d="M319.338,248.691h-.728v-.739a1.18,1.18,0,0,0-1.176-1.182H316.16a1.18,1.18,0,0,0-1.176,1.182v.739h-.728a1.18,1.18,0,0,0-1.176,1.182v1.285a1.18,1.18,0,0,0,1.176,1.182h.728v.739a1.18,1.18,0,0,0,1.176,1.182h1.274a1.18,1.18,0,0,0,1.176-1.182v-.739h.728a1.18,1.18,0,0,0,1.176-1.182v-1.285A1.18,1.18,0,0,0,319.338,248.691Zm.113,2.467a.116.116,0,0,1-.113.118h-1.26a.532.532,0,0,0-.532.532v1.271a.116.116,0,0,1-.113.118H316.16a.116.116,0,0,1-.113-.118v-1.271a.532.532,0,0,0-.532-.532h-1.26a.116.116,0,0,1-.113-.118v-1.285a.116.116,0,0,1,.113-.118h1.26a.532.532,0,0,0,.532-.532v-1.271a.116.116,0,0,1,.113-.118h1.274a.116.116,0,0,1,.113.118v1.271a.532.532,0,0,0,.532.532h1.26a.116.116,0,0,1,.113.118Z" transform="translate(-296.43 -236.902)" fill="#fff" stroke="#fff" stroke-width="0.5"/>
        </g>
      </g>
    </g>
  </g>
</svg>
