<svg xmlns="http://www.w3.org/2000/svg" width="59.197" height="41.718" viewBox="0 0 59.197 41.718">
  <g id="smile" transform="translate(0.513 0.502)">
    <g id="Group_2438" data-name="Group 2438" transform="translate(0 17.449)">
      <g id="Group_2437" data-name="Group 2437">
        <path id="Path_15907" data-name="Path 15907" d="M57.371,184a.959.959,0,0,0-.173-.016H.969a.97.97,0,0,0-.953,1.143,26.93,26.93,0,0,0,26.508,22.124h5.119a26.93,26.93,0,0,0,26.508-22.124A.969.969,0,0,0,57.371,184ZM31.643,205.316H26.524a24.979,24.979,0,0,1-19.765-9.695H12.6v2.908h1.939v-2.908h5.817v5.817H22.3v-5.817h5.817v5.817h1.939v-5.817H35.87v5.817h1.939v-5.817h5.817v2.908h1.939v-2.908h5.843A24.979,24.979,0,0,1,31.643,205.316Zm21.134-11.634H45.564v-4.847H43.626v4.847H37.809v-4.847H35.87v4.847H30.053v-4.847H28.114v4.847H22.3v-4.847H20.358v4.847H14.541v-4.847H12.6v4.847H5.39a24.94,24.94,0,0,1-3.232-7.756h53.85A24.938,24.938,0,0,1,52.776,193.683Z" transform="translate(0 -183.988)" fill="#18c2d9" stroke="#18c2d9" stroke-width="1"/>
      </g>
    </g>
    <g id="Group_2440" data-name="Group 2440" transform="translate(0.002 0)">
      <g id="Group_2439" data-name="Group 2439">
        <path id="Path_15908" data-name="Path 15908" d="M9.69,44.685a.969.969,0,0,0-.794-.794,3.75,3.75,0,0,1-3.081-3.082.969.969,0,0,0-1.912,0A3.75,3.75,0,0,1,.822,43.891a.969.969,0,0,0,0,1.912A3.75,3.75,0,0,1,3.9,48.884a.969.969,0,0,0,1.912,0A3.75,3.75,0,0,1,8.9,45.8.969.969,0,0,0,9.69,44.685ZM4.859,46.231a5.691,5.691,0,0,0-1.384-1.384,5.69,5.69,0,0,0,1.384-1.384,5.69,5.69,0,0,0,1.384,1.384A5.69,5.69,0,0,0,4.859,46.231Z" transform="translate(-0.014 -40.001)" fill="#18c2d9" stroke="#18c2d9" stroke-width="1"/>
      </g>
    </g>
    <g id="Group_2444" data-name="Group 2444" transform="translate(0.762 8.724)">
      <g id="Group_2443" data-name="Group 2443">
        <path id="Path_15910" data-name="Path 15910" d="M40.634,112.01a.97.97,0,0,0-.828.2l-5.2,4.332-5.2-4.33a.97.97,0,0,0-.828-.2l-22.3,4.847.413,1.892L28.536,114l5.452,4.544a.969.969,0,0,0,1.243,0L40.684,114l21.835,4.75.413-1.894Z" transform="translate(-6.289 -111.988)" fill="#18c2d9" stroke="#18c2d9" stroke-width="1"/>
      </g>
    </g>
  </g>
</svg>
