<svg xmlns="http://www.w3.org/2000/svg" width="41.028" height="41" viewBox="0 0 41.028 41">
  <g id="Group_2514" data-name="Group 2514" transform="translate(-1344.472 -5338.708)">
    <path id="chat" d="M19.921,26.093ZM34.091,5.352A20.769,20.769,0,0,0,20,0,20.77,20.77,0,0,0,5.907,5.352,17.623,17.623,0,0,0,0,18.437,17.278,17.278,0,0,0,3.661,29.075L.113,37.851a1.563,1.563,0,0,0,2.079,2.015l10.051-4.431a21.574,21.574,0,0,0,17.4-.84,1.563,1.563,0,0,0-1.415-2.786,18.434,18.434,0,0,1-15.393.492,1.561,1.561,0,0,0-1.243.008L4.452,35.455,6.9,29.393a1.562,1.562,0,0,0-.259-1.6,14.285,14.285,0,0,1-3.519-9.357C3.124,9.994,10.694,3.124,20,3.124S36.874,9.994,36.874,18.437a14.242,14.242,0,0,1-2.609,8.181,1.563,1.563,0,0,0,2.562,1.789A17.351,17.351,0,0,0,40,18.437,17.623,17.623,0,0,0,34.091,5.352Zm0,0" transform="translate(1345.001 5339.209)" fill="#fff" stroke="#707070" stroke-width="1"/>
    <g id="dentist" transform="translate(1354.318 5350.715)">
      <g id="Group_2320" data-name="Group 2320" transform="translate(0 0)">
        <g id="Group_2319" data-name="Group 2319">
          <g id="Group_2318" data-name="Group 2318">
            <path id="Path_15802" data-name="Path 15802" d="M.42,171.61a.421.421,0,1,0-.211-.786.421.421,0,0,0,.211.786Z" transform="translate(0.001 -166.148)" fill="#fff" stroke="#fff" stroke-width="0.5"/>
            <path id="Path_15803" data-name="Path 15803" d="M24.751,66.626a5.056,5.056,0,0,0-.245-2.028,4.94,4.94,0,0,0-3.084-3.209,5.317,5.317,0,0,0-4.74,1.091,1.013,1.013,0,0,1-1.163,0,5.317,5.317,0,0,0-4.74-1.091,4.817,4.817,0,0,0-2.913,2.769.422.422,0,0,0,.773.336,3.987,3.987,0,0,1,2.4-2.3,4.5,4.5,0,0,1,3.94.937,2.666,2.666,0,0,0,3.534,1.088.422.422,0,1,0-.379-.753,1.815,1.815,0,0,1-1.394.1,1.854,1.854,0,0,1-.246-.1,1.845,1.845,0,0,0,.677-.3,4.554,4.554,0,0,1,4-.977,4.107,4.107,0,0,1,2.545,2.681,4.2,4.2,0,0,1,.205,1.636q-.166-.01-.334-.01A5.485,5.485,0,0,0,19.692,75.8l-.237.5a.8.8,0,0,1-1.508-.175l-.992-4.678-.005-.022a.881.881,0,0,0-1.7,0l-.005.022-.992,4.678a.8.8,0,0,1-1.508.175c-1.572-3.345-2.564-5.326-2.947-5.889a9.582,9.582,0,0,1-1.215-2.412.422.422,0,0,0-.8.26A10.423,10.423,0,0,0,9.1,70.892c.348.511,1.371,2.561,2.88,5.773a1.618,1.618,0,0,0,1.478.945,1.723,1.723,0,0,0,.2-.012,1.622,1.622,0,0,0,1.419-1.292l.989-4.664c0-.011.01-.02.034-.02s.03.008.034.02l.989,4.664a1.644,1.644,0,0,0,3.1.358l.133-.282a5.384,5.384,0,0,0,3.229,1.073,5.483,5.483,0,0,0,1.171-10.83ZM23.58,76.613a4.636,4.636,0,1,1,4.6-4.636A4.621,4.621,0,0,1,23.58,76.613Z" transform="translate(-7.433 -61.184)" fill="#fff" stroke="#fff" stroke-width="0.5"/>
            <path id="Path_15804" data-name="Path 15804" d="M318.041,248.294h-.577v-.586a.936.936,0,0,0-.933-.937h-1.01a.936.936,0,0,0-.933.937v.586h-.577a.936.936,0,0,0-.933.937v1.019a.936.936,0,0,0,.933.937h.577v.586a.936.936,0,0,0,.933.937h1.01a.936.936,0,0,0,.933-.937v-.586h.577a.936.936,0,0,0,.933-.937V249.23A.936.936,0,0,0,318.041,248.294Zm.09,1.956a.092.092,0,0,1-.09.094h-1a.422.422,0,0,0-.422.422v1.007a.092.092,0,0,1-.089.094h-1.01a.092.092,0,0,1-.089-.094v-1.007a.422.422,0,0,0-.422-.422h-1a.092.092,0,0,1-.089-.094V249.23a.092.092,0,0,1,.089-.094h1a.422.422,0,0,0,.422-.422v-1.007a.092.092,0,0,1,.089-.094h1.01a.092.092,0,0,1,.089.094v1.007a.422.422,0,0,0,.422.422h1a.092.092,0,0,1,.09.094Z" transform="translate(-299.88 -238.947)" fill="#fff" stroke="#fff" stroke-width="0.5"/>
          </g>
        </g>
      </g>
    </g>
  </g>
</svg>
