<svg xmlns="http://www.w3.org/2000/svg" width="53.93" height="53.968" viewBox="0 0 53.93 53.968">
  <g id="tooth_2_" data-name="tooth (2)" transform="translate(0.015 0.501)">
    <path id="Path_15976" data-name="Path 15976" d="M95.737,18.957c.341.546.682,1.093.994,1.662a13.785,13.785,0,0,1,1.741,5.053,38.727,38.727,0,0,0,1.077,6.164c.392,1.418,1.209,4.37,3.805,4.37.757,0,3.061,0,4.58-10.6.3-2.049,1.131-2.257,1.6-2.315.47.058,1.3.264,1.6,2.312,1.52,10.6,3.823,10.6,4.581,10.6,2.6,0,3.413-2.952,3.8-4.363a38.758,38.758,0,0,0,1.079-6.175,13.8,13.8,0,0,1,1.742-5.051c.311-.569.653-1.116.993-1.662a20.9,20.9,0,0,0,1.744-3.212c1.65-4.092,2.092-9.7-1.614-13.144-3.57-3.336-9.891-3.453-13.927-.4C105.5-.854,99.177-.736,95.608,2.6c-3.705,3.453-3.264,9.056-1.614,13.148a20.861,20.861,0,0,0,1.743,3.212Zm1.075-15.07c3.066-2.864,8.851-2.813,12.137.1.009.009.021.01.03.018s.014.02.024.027c.038.028,3.755,2.865,4.68,5.926a.882.882,0,0,0,.844.627.925.925,0,0,0,.255-.037.882.882,0,0,0,.589-1.1c-.791-2.62-3.128-4.954-4.425-6.092,3.359-2.268,8.485-2.109,11.309.529,3.053,2.843,2.612,7.649,1.182,11.2a19.221,19.221,0,0,1-1.607,2.94c-.353.573-.714,1.147-1.042,1.746a15.523,15.523,0,0,0-1.946,5.7,37.521,37.521,0,0,1-1.025,5.9c-.431,1.556-.946,3.076-2.1,3.076-.48,0-1.859-2.288-2.834-9.086-.341-2.343-1.433-3.63-3.246-3.826a.924.924,0,0,0-.1.009.744.744,0,0,0-.1-.009c-1.813.2-2.9,1.483-3.246,3.828-.975,6.8-2.354,9.084-2.833,9.084-1.157,0-1.676-1.52-2.107-3.083a37.458,37.458,0,0,1-1.023-5.892,15.532,15.532,0,0,0-1.946-5.7c-.328-.6-.686-1.173-1.042-1.746a19.172,19.172,0,0,1-1.606-2.94c-1.431-3.549-1.872-8.354,1.182-11.2Zm0,0" transform="translate(-82.584 0)" fill="#18c2d9" stroke="#18c2d9" stroke-width="1"/>
    <path id="Path_15977" data-name="Path 15977" d="M127.894,46.586a.884.884,0,0,0,.864-1.069,4.254,4.254,0,0,1,2.049-4.622.882.882,0,0,0-.831-1.556,6,6,0,0,0-2.943,6.552A.882.882,0,0,0,127.894,46.586Zm0,0" transform="translate(-113.118 -35.116)" fill="#18c2d9" stroke="#18c2d9" stroke-width="1"/>
    <path id="Path_15978" data-name="Path 15978" d="M52.82,239.9a1.771,1.771,0,0,0-1.382-.433l-4.331.524a10.4,10.4,0,0,0-8.934,7.356l-1.535,5.849a8.67,8.67,0,0,1-8.613,6.12H25.873a8.673,8.673,0,0,1-8.613-6.117l-1.535-5.849a10.4,10.4,0,0,0-8.934-7.354l-4.331-.529a1.764,1.764,0,0,0-1.976,1.754v23.387a2.647,2.647,0,0,0,2.646,2.647H50.768a2.647,2.647,0,0,0,2.646-2.647V241.219a1.763,1.763,0,0,0-.594-1.321Zm-1.17,24.708a.882.882,0,0,1-.882.882H3.131a.882.882,0,0,1-.882-.882V241.219l4.331.525a8.624,8.624,0,0,1,7.44,6.052l1.534,5.849a10.3,10.3,0,0,0,9.1,7.363.893.893,0,0,0,.346.071h3.9a.9.9,0,0,0,.346-.071,10.3,10.3,0,0,0,9.1-7.363L39.88,247.8a8.625,8.625,0,0,1,7.44-6.052l4.331-.529Zm0,0" transform="translate(0 -214.285)" fill="#18c2d9" stroke="#18c2d9" stroke-width="1"/>
  </g>
</svg>
