<svg xmlns="http://www.w3.org/2000/svg" width="53.419" height="53.306" viewBox="0 0 53.419 53.306">
  <g id="tooth" transform="translate(0.51 0.093)">
    <path id="Path_15940" data-name="Path 15940" d="M25.716,250.307c.025-.041.048-.087.073-.125a16.137,16.137,0,0,0,1.307-2.468c1.245-3.163,1.569-7.5-1.244-10.188a7.667,7.667,0,0,0-4.873-2.015,11.662,11.662,0,0,0-5.584,1.513l-.343.158a20.321,20.321,0,0,0-3.972,2.3,8.41,8.41,0,0,0-2.713,3.855c-.387,1.019-.959,1.331-2.215,1.94-.622.3-2.514,1.22-2,3.246A6.057,6.057,0,0,0,5,250.307c.539.781.473.848,1,1.743a9.994,9.994,0,0,1,.968,3.149,30.405,30.405,0,0,0,.8,4.705c.332,1.216.951,3.473,3.036,3.473.669,0,2.446,0,3.608-8.225.185-1.332.66-1.528.958-1.577.3.044.784.221.978,1.579,1.148,8.222,2.935,8.222,3.607,8.222,2.091,0,2.725-2.343,3.028-3.463a30.191,30.191,0,0,0,.806-4.715,9.924,9.924,0,0,1,.967-3.149C25.243,251.287,25.243,251.088,25.716,250.307ZM22.06,255a29.117,29.117,0,0,1-.755,4.454c-.286,1.056-.649,2.178-1.284,2.193-.3-.147-1.236-1.645-1.948-6.734-.329-2.313-1.561-2.951-2.556-3.074a.9.9,0,0,0-.247-.006c-1,.113-2.259.74-2.585,3.079-.717,5.087-1.648,6.585-1.88,6.72-.7,0-1.052-1.082-1.356-2.191A29.069,29.069,0,0,1,8.7,255a12.151,12.151,0,0,0-1.465-4.388c-.174-.331-.384-.652-.594-.973a5.373,5.373,0,0,1-.8-1.543c-.069-.275-.165-.654,1.075-1.255A5.039,5.039,0,0,0,10,243.952a6.67,6.67,0,0,1,2.154-3.094,18.68,18.68,0,0,1,3.631-2.091l.349-.16a10.344,10.344,0,0,1,4.751-1.355,5.925,5.925,0,0,1,3.771,1.535c2.194,2.091,1.817,5.774.827,8.289a14.609,14.609,0,0,1-1.175,2.2c-.262.436-.532.878-.777,1.335A12.144,12.144,0,0,0,22.06,255Z" transform="translate(-2.617 -210.663)" fill="#18c2d9" stroke="#18c2d9" stroke-width="1"/>
    <path id="Path_15941" data-name="Path 15941" d="M8.667,21.113a42.979,42.979,0,0,0,5.079,1.237,44.864,44.864,0,0,0,5.174.675c.668.043,1.307.064,1.922.064a13.524,13.524,0,0,0,6.784-1.424,4.606,4.606,0,0,0,1.909-2.144c2.41-.234,4.792-.555,7-.939,7.513-1.307,12.8-3.975,14.855-7.473.014-.02.046-.066.058-.087a6.693,6.693,0,0,0,.93-4.082,1.3,1.3,0,0,0-.025-.167c0-.013-.011-.022-.015-.034A6.531,6.531,0,0,0,50.08,3.155,1.019,1.019,0,0,0,50,3.09l-.006-.007-.02-.014a.416.416,0,0,0-.033-.027c-3.224-2.6-8.914-3.277-16.46-1.959-3,.523-6.093,1.22-8.969,2.028a10.439,10.439,0,0,0-7.319.7C14.031.3,8.259-.645,4.425,1.866,1.149,4.015-.157,9.636.015,13.951a4.74,4.74,0,0,0,1.016,2.761c1.414,1.781,3.984,3.261,7.636,4.4Zm41.292-11a.907.907,0,0,0-.055.087c-1.815,3.082-6.669,5.451-13.671,6.671-8.306,1.449-18.685,1.943-23.4.243,4.188.436,11.009-.179,20.794-1.885,7.3-1.272,12.35-3.722,14.614-7.084a7.08,7.08,0,0,0,1.2-3.184,4.74,4.74,0,0,1,1.2,2.2,4.953,4.953,0,0,1-.684,2.955Zm-18.89,3.777a11.448,11.448,0,0,0-.845-6.6c.452-.082.9-.161,1.328-.237l.633-.112c6.164-1.071,11.1-.734,14.061.934-2.225,2.574-6.754,4.56-12.92,5.631-.77.137-1.519.261-2.256.384ZM33.78,2.8c6.085-1.059,10.947-.756,13.922.849a4.843,4.843,0,0,1-.488,2.77C43.87,4.472,38.6,4.053,31.879,5.223l-.635.112c-.7.123-1.431.255-2.178.394a8.969,8.969,0,0,0-1.908-1.52c2.178-.546,4.424-1.027,6.622-1.41Zm-28.4.523C8.63,1.2,13.814,2.2,16.276,5.435c.137.2,2.963,4.174,6.042,4.746a.838.838,0,0,0,.159.015.871.871,0,0,0,.159-1.728c-1.575-.293-3.322-2.042-4.325-3.249C21.719,3.688,26.3,4.7,28.383,7.607c1.007,1.4,1.314,3.778.879,6.569-7.986,1.239-13.7,1.611-17,1.1a1.629,1.629,0,0,0-.973,3.068c2.293,1.124,6.152,1.577,10.519,1.577,1.778,0,3.639-.076,5.513-.212a2.7,2.7,0,0,1-.568.446c-1.139.668-3.4,1.405-7.719,1.128a42.99,42.99,0,0,1-4.967-.649,41.306,41.306,0,0,1-4.879-1.187c-4.126-1.289-5.97-2.788-6.8-3.828a2.99,2.99,0,0,1-.635-1.742C1.6,10.018,2.819,5,5.38,3.323Zm0,0" transform="translate(0 0)" fill="#18c2d9" stroke="#18c2d9" stroke-width="1"/>
    <path id="Path_15942" data-name="Path 15942" d="M36.847,42.263a.712.712,0,0,0,.072,0,.872.872,0,0,0,.8-.939c-.371-4.493,2.56-5.4,2.7-5.447a.871.871,0,0,0-.462-1.68c-1.547.417-4.37,2.475-3.975,7.27a.871.871,0,0,0,.866.8Zm0,0" transform="translate(-32.212 -30.24)" fill="#18c2d9" stroke="#18c2d9" stroke-width="1"/>
  </g>
</svg>
