<svg id="twitter_1_" data-name="twitter (1)" xmlns="http://www.w3.org/2000/svg" width="29.008" height="29.008" viewBox="0 0 29.008 29.008">
  <path id="Path_15989" data-name="Path 15989" d="M14.5,0a14.5,14.5,0,1,0,14.5,14.5A14.5,14.5,0,0,0,14.5,0Zm8.771,10.636q.01.257.01.515a12.482,12.482,0,0,1-12.6,12.6A12.555,12.555,0,0,1,3.89,21.765a.107.107,0,0,1-.043-.127.108.108,0,0,1,.114-.07A8.768,8.768,0,0,0,5,21.629a8.65,8.65,0,0,0,5.155-1.681,4.5,4.5,0,0,1-3.906-3.109.107.107,0,0,1,.122-.138,4.318,4.318,0,0,0,1.5.021,4.514,4.514,0,0,1-3.163-4.3v-.058a.108.108,0,0,1,.054-.091.106.106,0,0,1,.105,0,4.3,4.3,0,0,0,1.57.508A4.5,4.5,0,0,1,5.346,7a.107.107,0,0,1,.084-.053.105.105,0,0,1,.092.039,12.408,12.408,0,0,0,8.835,4.542,4.553,4.553,0,0,1-.086-.886A4.5,4.5,0,0,1,22.013,7.52a8.675,8.675,0,0,0,2.7-1.041.107.107,0,0,1,.157.125,4.493,4.493,0,0,1-1.582,2.222,8.651,8.651,0,0,0,2.027-.615.107.107,0,0,1,.133.158A8.968,8.968,0,0,1,23.275,10.636Z" fill="#fff"/>
</svg>
