<svg id="youtube-logotype" xmlns="http://www.w3.org/2000/svg" width="29.009" height="29.008" viewBox="0 0 29.009 29.008">
  <g id="Group_2445" data-name="Group 2445">
    <path id="Path_15983" data-name="Path 15983" d="M25.676,50.066h1.15V56.29h1.088V50.066h1.171V49.047H25.676Z" transform="translate(-18.056 -34.492)" fill="#1c92d1"/>
    <path id="Path_15984" data-name="Path 15984" d="M51.962,50.827a1.324,1.324,0,0,0-1.011.585V49.046h-.978V56.29h.978v-.523a1.333,1.333,0,0,0,1.011.6.774.774,0,0,0,.781-.607,4.3,4.3,0,0,0,.1-1.088V52.521a4.146,4.146,0,0,0-.1-1.085A.774.774,0,0,0,51.962,50.827Zm-.1,3.92c0,.488-.143.728-.426.728a.7.7,0,0,1-.488-.241V51.945a.7.7,0,0,1,.488-.238c.282,0,.426.25.426.737Z" transform="translate(-35.143 -34.491)" fill="#1c92d1"/>
    <path id="Path_15985" data-name="Path 15985" d="M39.477,59.393c-.217.307-.422.458-.618.458-.131,0-.205-.077-.229-.229a3.02,3.02,0,0,1-.009-.38V55.268h-.978v4.267a2.751,2.751,0,0,0,.086.8.6.6,0,0,0,.63.4,1.567,1.567,0,0,0,1.118-.663v.589h.979v-5.4h-.979Z" transform="translate(-26.472 -38.867)" fill="#1c92d1"/>
    <path id="Path_15986" data-name="Path 15986" d="M45.535,29.443c.318,0,.471-.253.471-.757V26.392c0-.5-.153-.756-.471-.756s-.472.252-.472.756v2.294C45.063,29.191,45.216,29.443,45.535,29.443Z" transform="translate(-31.69 -18.028)" fill="#1c92d1"/>
    <path id="Path_15987" data-name="Path 15987" d="M14.5,0a14.5,14.5,0,1,0,14.5,14.5A14.5,14.5,0,0,0,14.5,0Zm1.613,6.784H17.1V10.8a2.327,2.327,0,0,0,.012.384c.022.153.1.231.232.231.2,0,.405-.153.624-.463V6.784h.988v5.454h-.988v-.595a1.587,1.587,0,0,1-1.129.67.607.607,0,0,1-.637-.405,2.756,2.756,0,0,1-.088-.811V6.784ZM12.385,8.562a2.12,2.12,0,0,1,.309-1.285,1.466,1.466,0,0,1,2.3,0A2.142,2.142,0,0,1,15.3,8.562v1.91A2.135,2.135,0,0,1,15,11.755a1.468,1.468,0,0,1-2.3,0,2.113,2.113,0,0,1-.309-1.283ZM9.742,4.919l.778,2.874.748-2.874h1.108L11.057,9.274v2.964h-1.1V9.274a18.026,18.026,0,0,0-.67-2.316c-.231-.679-.472-1.361-.7-2.039H9.742ZM22.312,22.275a2.045,2.045,0,0,1-1.749,1.59,54.358,54.358,0,0,1-6.06.224,54.356,54.356,0,0,1-6.06-.224,2.043,2.043,0,0,1-1.749-1.59,17.312,17.312,0,0,1-.282-3.825A17.333,17.333,0,0,1,6.7,14.625a2.043,2.043,0,0,1,1.749-1.59,54.363,54.363,0,0,1,6.06-.224,54.358,54.358,0,0,1,6.06.224,2.045,2.045,0,0,1,1.75,1.59,17.367,17.367,0,0,1,.28,3.825A17.313,17.313,0,0,1,22.312,22.275Z" fill="#1c92d1"/>
    <path id="Path_15988" data-name="Path 15988" d="M63.678,55.046a1.389,1.389,0,0,0-1.171.553,2.1,2.1,0,0,0-.3,1.272v1.891a2.083,2.083,0,0,0,.314,1.269,1.4,1.4,0,0,0,1.183.553A1.352,1.352,0,0,0,64.885,60a1.393,1.393,0,0,0,.229-.586c.009-.1.021-.315.021-.63v-.142h-1a6.407,6.407,0,0,1-.021.662.42.42,0,0,1-.437.392c-.336,0-.5-.249-.5-.748v-.957h1.956V56.87a2.121,2.121,0,0,0-.3-1.272A1.358,1.358,0,0,0,63.678,55.046Zm.478,2.128h-.978v-.5q0-.749.491-.749c.323,0,.487.25.487.749Z" transform="translate(-43.745 -38.71)" fill="#1c92d1"/>
  </g>
</svg>
